<svg width="22" height="22" viewBox="0 0 22 22" fill="none" xmlns="http://www.w3.org/2000/svg">
<path fill-rule="evenodd" clip-rule="evenodd" d="M10.992 2C5.9941 2 1.98492 5.95015 1.99998 10.7792L1.99999 10.7804V10.7816C1.99993 12.4614 2.49092 14.1045 3.41234 15.5087C3.46497 15.5806 3.5142 15.655 3.55988 15.7315L3.5635 15.7375L3.56701 15.7437C3.64096 15.873 3.72865 16.0473 3.78908 16.2397C3.84438 16.4157 3.90808 16.7028 3.82484 17.0091L3.82441 17.0107L3.04976 19.8128L5.72858 18.846C5.99491 18.7365 6.28031 18.6805 6.56842 18.6814C6.56891 18.6814 6.56939 18.6814 6.56987 18.6814L6.56702 19.4314L6.56842 18.6814C6.56823 18.6814 6.56861 18.6814 6.56842 18.6814C6.83817 18.6818 7.10557 18.7316 7.35736 18.8284L7.35845 18.8288C7.51048 18.8875 8.11609 19.1125 8.71494 19.2801C9.30364 19.4449 10.3908 19.6447 11.1598 19.6447C16.1328 19.6447 19.9999 15.6518 20 10.7889C19.9998 10.1856 19.9359 9.58378 19.8095 8.99391L19.8091 8.99234C18.9657 5.01596 15.3473 2 10.992 2ZM0.499985 10.7827C0.482882 5.08891 5.19971 0.5 10.992 0.5C16.0469 0.5 20.2836 4.00287 21.2762 8.68C21.4247 9.37296 21.4997 10.0796 21.5 10.7883C21.5 16.4637 16.9774 21.1447 11.1598 21.1447C10.2133 21.1447 8.98477 20.9133 8.31065 20.7246C7.64752 20.539 6.99302 20.2956 6.81874 20.2283C6.73813 20.1974 6.65252 20.1815 6.56618 20.1814L6.56517 20.1814L6.56416 20.1814C6.47092 20.181 6.37857 20.1996 6.29271 20.236L6.274 20.2439L3.09308 21.3919C2.96102 21.446 2.82186 21.4811 2.67981 21.4959L2.63981 21.5001L2.5996 21.5C2.44084 21.4995 2.28376 21.4675 2.13745 21.4059C1.99114 21.3443 1.85852 21.2543 1.74725 21.141C1.63599 21.0278 1.5483 20.8936 1.48927 20.7462C1.43024 20.5989 1.40103 20.4412 1.40335 20.2825L1.40368 20.26L1.40536 20.2375C1.41304 20.1349 1.4313 20.0333 1.45986 19.9345L2.3575 16.6875C2.34113 16.6361 2.30989 16.5678 2.2684 16.4945C2.24582 16.4571 2.22145 16.4208 2.19537 16.3858L2.18255 16.3686L2.17073 16.3507C1.08105 14.6981 0.500149 12.7622 0.499985 10.7827Z" fill="#1E293B"/>
</svg>
