<svg width="18" height="22" viewBox="0 0 18 22" fill="none" xmlns="http://www.w3.org/2000/svg">
<path d="M0.75 21.5C0.3375 21.5 0 21.1625 0 20.75V2.19219C0 1.79375 0.215625 1.41875 0.557813 1.22188C1.125 0.89375 2.26406 0.5 4.5 0.5C6.24375 0.5 8.19375 1.18906 9.91875 1.79844C11.3016 2.28594 12.6141 2.75 13.5 2.75C14.6484 2.74531 15.7688 2.52031 16.8281 2.07031C17.0391 1.98125 17.2687 1.98125 17.4797 2.06563C17.6859 2.15 17.85 2.31406 17.9391 2.52031C17.9813 2.62344 18.0047 2.73594 18.0047 2.84844V13.1281C18.0047 13.5031 17.7844 13.8359 17.4422 13.9859C17.0344 14.1641 15.5438 14.75 13.5047 14.75C12.375 14.75 10.9547 14.4172 9.45469 14.0609C7.76719 13.6625 6.02344 13.25 4.50469 13.25C2.775 13.25 1.89375 13.5125 1.50469 13.6766V20.75C1.5 21.1625 1.1625 21.5 0.75 21.5ZM4.5 11.75C6.19688 11.75 8.10938 12.2 9.79688 12.5984C11.2078 12.9313 12.5437 13.25 13.5 13.25C14.8781 13.25 15.9422 12.95 16.5 12.7484V3.78594C15.5344 4.09062 14.5266 4.24531 13.5 4.25C12.3516 4.25 10.9266 3.74375 9.4125 3.21406C7.72969 2.61406 5.98594 2 4.5 2C2.76094 2 1.87969 2.2625 1.5 2.42656V12.0922C2.15625 11.9047 3.11719 11.75 4.5 11.75Z" fill="#1E293B"/>
</svg>
