<svg width="24" height="22" viewBox="0 0 24 22" fill="none" xmlns="http://www.w3.org/2000/svg">
<path fill-rule="evenodd" clip-rule="evenodd" d="M12.75 0.5C12.4659 0.5 12.2062 0.660502 12.0792 0.91459C12.0108 1.05138 11.8234 1.34863 11.5244 1.79606C11.3056 2.12347 11.0445 2.50567 10.7592 2.9235C10.6678 3.05725 10.5737 3.19506 10.478 3.33548C9.69547 4.48316 8.78874 5.8278 8.16299 6.91154C7.54904 7.97486 7.13818 8.73181 6.87942 9.22596C6.75002 9.47306 6.65859 9.65455 6.59878 9.77589C6.56886 9.83656 6.54685 9.88221 6.53193 9.91351C6.4655 10.0113 6.37679 10.0935 6.27347 10.1516C6.16055 10.2151 6.03337 10.249 5.90383 10.25H4.5C3.50544 10.25 2.55161 10.6451 1.84835 11.3484C1.14509 12.0516 0.75 13.0054 0.75 14V16.25C0.75 17.2446 1.14509 18.1984 1.84835 18.9017C2.55161 19.6049 3.50544 20 4.5 20H7.25883C8.32927 20.7561 9.68061 21.5 12 21.5C13.1548 21.5 13.9416 21.4298 14.4521 21.3553C14.7076 21.318 14.8948 21.2794 15.025 21.2478C15.0279 21.2471 15.0307 21.2464 15.0336 21.2457L15.0407 21.2439C15.2478 21.3014 15.4645 21.3372 15.6845 21.3565L15.6997 21.3578L18.7335 21.5L18.7521 21.5C19.3478 21.4983 19.9186 21.261 20.3398 20.8398C20.761 20.4186 20.9983 19.8478 21 19.2521L21 19.25L21 19.2479C20.9992 18.9617 20.944 18.6812 20.8401 18.4203C21.2149 18.3178 21.5603 18.1193 21.8398 17.8398C22.261 17.4186 22.4983 16.8478 22.5 16.2521L22.5 16.25L22.5 16.2479C22.4989 15.8582 22.3969 15.4792 22.2086 15.1457C22.3453 15.0585 22.4732 14.9561 22.5896 14.8396C23.0107 14.4185 23.2481 13.8479 23.25 13.2523L23.25 13.25L23.25 13.2477C23.2481 12.6521 23.0107 12.0815 22.5896 11.6604C22.3062 11.3769 21.955 11.1767 21.574 11.0755C21.6875 10.8056 21.7484 10.5135 21.75 10.2151L21.75 10.2131V10.2031C21.75 9.03342 20.8124 7.87894 19.5326 7.85962L13.8342 7.41083C13.9242 6.82129 14.0884 6.27882 14.2899 5.72627C14.3928 5.44426 14.5031 5.16575 14.6187 4.87372C14.6329 4.83792 14.6472 4.80192 14.6615 4.76569C14.7912 4.43779 14.9258 4.09406 15.0516 3.73421C15.3241 2.9558 15.2771 2.1365 14.8326 1.49093C14.3838 0.839111 13.6234 0.5 12.75 0.5ZM14.117 14.7448C13.7417 14.3815 13.5 13.8768 13.5 13.25C13.5 12.6056 13.7537 12.0974 14.1418 11.7363L14.1401 11.7347C13.7105 11.3387 13.5 10.7997 13.5 10.2031C13.5 9.68702 13.6628 9.25845 13.927 8.92278L13.3908 8.88055C12.9116 8.86292 12.6257 8.51823 12.5072 8.3223C12.3728 8.1002 12.2762 7.79509 12.3113 7.48456L12.3114 7.48333C12.4086 6.63553 12.6306 5.89789 12.8808 5.21217C12.9911 4.90971 13.1093 4.61145 13.2239 4.32183L13.2268 4.31463C13.2401 4.28097 13.2534 4.24744 13.2666 4.21402C13.396 3.88695 13.5208 3.56769 13.6358 3.23878C13.7852 2.81203 13.7151 2.51296 13.5971 2.34161C13.5203 2.22998 13.3822 2.11313 13.1506 2.04915C13.0403 2.22439 12.9104 2.4217 12.7715 2.62953C12.548 2.96394 12.2807 3.35532 11.994 3.77513C11.9035 3.90771 11.811 4.04314 11.7173 4.1805C10.9295 5.3359 10.055 6.63454 9.46201 7.66158C8.85721 8.70905 8.45643 9.44787 8.20824 9.92182C8.08416 10.1588 7.99828 10.3294 7.94416 10.4392C7.91711 10.494 7.898 10.5337 7.88603 10.5588C7.88338 10.5644 7.88107 10.5692 7.87911 10.5734C7.87809 10.5755 7.87716 10.5775 7.87632 10.5793C7.87515 10.5818 7.87416 10.5839 7.87334 10.5856L7.87083 10.591C7.85824 10.6184 7.84389 10.6453 7.8281 10.671C7.62644 10.9989 7.34455 11.2701 7.00902 11.4589C6.67349 11.6477 6.29538 11.7479 5.91039 11.75L5.90625 11.75H4.5C3.90326 11.75 3.33097 11.9871 2.90901 12.409C2.48705 12.831 2.25 13.4033 2.25 14V16.25C2.25 16.8467 2.48705 17.419 2.90901 17.841C3.33097 18.2629 3.90326 18.5 4.5 18.5H7.5C7.65851 18.5 7.81294 18.5502 7.94113 18.6434C8.90034 19.3411 9.96612 20 12 20C12.6691 20 13.1956 19.9751 13.6013 19.9415C13.5323 19.7229 13.5 19.49 13.5 19.25C13.5 18.6388 13.7373 18.1262 14.1105 17.7543C13.714 17.3644 13.5 16.8367 13.5 16.25C13.5 15.6595 13.7168 15.1329 14.117 14.7448ZM19.5146 9.35958L15.7933 9.54565C15.224 9.58399 15 9.88771 15 10.2031C15 10.4315 15.0707 10.5525 15.1568 10.6318C15.256 10.7233 15.4501 10.8249 15.7956 10.8603L19.5078 10.9531C19.7032 10.9511 19.8902 10.8728 20.0289 10.7349C20.1691 10.5955 20.2485 10.4064 20.25 10.2088V10.2031C20.25 9.73919 19.8644 9.36962 19.5146 9.35958ZM15.782 12.5933L21.0042 12.5C21.2012 12.5024 21.3895 12.5816 21.529 12.721C21.6694 12.8614 21.7488 13.0515 21.75 13.25C21.7488 13.4485 21.6694 13.6386 21.529 13.779C21.3895 13.9184 21.2012 13.9976 21.0042 14L15.7753 13.9066C15.2328 13.8778 15 13.5739 15 13.25C15 12.9356 15.2216 12.634 15.782 12.5933ZM18.7585 18.5001L15.7617 18.5938H15.75C15.2741 18.5938 15 18.9014 15 19.25C15 19.4946 15.0691 19.5923 15.1316 19.6483C15.2159 19.724 15.406 19.8244 15.8012 19.861L18.7633 19.9998C18.957 19.9953 19.1418 19.9164 19.2791 19.7791C19.4195 19.6387 19.4989 19.4485 19.5 19.25C19.4989 19.0515 19.4195 18.8613 19.2791 18.7209C19.1407 18.5825 18.954 18.5034 18.7585 18.5001ZM15.782 15.5932L20.2553 15.5001C20.4519 15.5025 20.6399 15.5817 20.7791 15.7209C20.9195 15.8613 20.9989 16.0515 21 16.25C20.9989 16.4485 20.9195 16.6387 20.7791 16.7791C20.6399 16.9183 20.4519 16.9975 20.2552 16.9999L15.7752 16.9066C15.4758 16.8919 15.2834 16.797 15.1749 16.6968C15.0738 16.6035 15 16.4657 15 16.25C15 16.036 15.0726 15.9026 15.1727 15.8108C15.2819 15.7108 15.477 15.6143 15.782 15.5932Z" fill="#1E293B"/>
</svg>
