<svg width="20" height="18" viewBox="0 0 20 18" fill="none" xmlns="http://www.w3.org/2000/svg">
<path fill-rule="evenodd" clip-rule="evenodd" d="M2.875 2.25C2.57663 2.25 2.29048 2.36853 2.0795 2.5795C1.86853 2.79048 1.75 3.07663 1.75 3.375V14.625C1.75 14.9234 1.86853 15.2095 2.0795 15.4205C2.29048 15.6315 2.57663 15.75 2.875 15.75H10.375C10.6734 15.75 10.9595 15.6315 11.1705 15.4205C11.3815 15.2095 11.5 14.9234 11.5 14.625V12.75C11.5 12.3358 11.8358 12 12.25 12C12.6642 12 13 12.3358 13 12.75V14.625C13 15.3212 12.7234 15.9889 12.2312 16.4812C11.7389 16.9734 11.0712 17.25 10.375 17.25H2.875C2.17881 17.25 1.51113 16.9734 1.01884 16.4812C0.526562 15.9889 0.25 15.3212 0.25 14.625V3.375C0.25 2.67881 0.526562 2.01113 1.01884 1.51884C1.51113 1.02656 2.17881 0.75 2.875 0.75H10C10.7042 0.75 11.4264 1.02832 11.9759 1.45883C12.5225 1.88709 13 2.55241 13 3.375V5.25C13 5.66421 12.6642 6 12.25 6C11.8358 6 11.5 5.66421 11.5 5.25V3.375C11.5 3.16213 11.3703 2.88994 11.0507 2.63957C10.7341 2.39144 10.3312 2.25 10 2.25H2.875Z" fill="#1E293B"/>
<path fill-rule="evenodd" clip-rule="evenodd" d="M14.7197 4.71967C15.0126 4.42678 15.4874 4.42678 15.7803 4.71967L19.5303 8.46967C19.8232 8.76256 19.8232 9.23744 19.5303 9.53033L15.7803 13.2803C15.4874 13.5732 15.0126 13.5732 14.7197 13.2803C14.4268 12.9874 14.4268 12.5126 14.7197 12.2197L17.9393 9L14.7197 5.78033C14.4268 5.48744 14.4268 5.01256 14.7197 4.71967Z" fill="#1E293B"/>
<path fill-rule="evenodd" clip-rule="evenodd" d="M5.5 9C5.5 8.58579 5.83579 8.25 6.25 8.25H18.25C18.6642 8.25 19 8.58579 19 9C19 9.41421 18.6642 9.75 18.25 9.75H6.25C5.83579 9.75 5.5 9.41421 5.5 9Z" fill="#1E293B"/>
</svg>
