<svg width="21" height="21" viewBox="0 0 21 21" fill="none" xmlns="http://www.w3.org/2000/svg">
<path fill-rule="evenodd" clip-rule="evenodd" d="M18.5868 0.103117C19.0398 0.282843 19.5 0.736827 19.5 1.40477V16.611C19.5 17.3152 18.9861 17.7448 18.5492 17.9039C18.152 18.0484 17.459 18.0858 17.0328 17.5357L17.0315 17.5341L17.0284 17.5302C17.0218 17.5221 17.0114 17.5093 16.9973 17.4923C16.9691 17.4582 16.9263 17.4069 16.87 17.3409C16.7572 17.2089 16.5903 17.0182 16.3777 16.7886C15.9516 16.3283 15.3466 15.7163 14.6294 15.1065C13.1535 13.8516 11.3663 12.7485 9.75 12.7485H2.25C1.85218 12.7485 1.47065 12.5905 1.18934 12.3092C0.908035 12.0279 0.75 11.6463 0.75 11.2485V6.74852C0.75 6.35069 0.908036 5.96916 1.18934 5.68786C1.47064 5.40655 1.85217 5.24852 2.25 5.24852H9.75C11.3674 5.24852 13.155 4.14944 14.6305 2.90005C15.3477 2.29281 15.9527 1.68342 16.3788 1.2251C16.5913 0.996433 16.7582 0.806616 16.871 0.675127C16.9273 0.609413 16.9701 0.558358 16.9983 0.524408C17.0123 0.507435 17.0227 0.494746 17.0293 0.486646C17.0322 0.483182 17.0343 0.480562 17.0357 0.478802C17.4684 -0.0691274 18.1436 -0.0727185 18.5868 0.103117ZM17.6222 17.0718L18.2075 16.6033C18.2074 16.6032 18.2076 16.6034 18.2075 16.6033C18.2069 16.6038 18.2047 16.6051 18.1974 16.611C18.1684 16.6344 18.0562 16.7244 17.6222 17.0718ZM18 16.3544V1.66279C17.8762 1.80688 17.6994 2.00758 17.4774 2.24637C17.0229 2.73534 16.3744 3.389 15.5998 4.0448C14.092 5.3215 11.9435 6.74852 9.75 6.74852L2.25 6.74852L2.25 11.2485H9.75C11.9446 11.2485 14.0936 12.682 15.601 13.9638C16.3755 14.6223 17.024 15.2786 17.4785 15.7696C17.6998 16.0087 17.8762 16.2098 18 16.3544ZM18.2066 1.41612C18.2065 1.41621 18.2067 1.41602 18.2066 1.41612L17.6222 0.94633C18.0363 1.27926 18.157 1.37638 18.1921 1.40477C18.2034 1.41392 18.2061 1.41565 18.2066 1.41612Z" fill="#1E293B"/>
<path fill-rule="evenodd" clip-rule="evenodd" d="M1.79584 8.1877C2.16204 8.03084 2.34357 7.612 2.20225 7.23515C2.05681 6.84731 1.6245 6.65081 1.23666 6.79625L1.5 7.49849C1.23666 6.79625 1.23617 6.79643 1.23567 6.79662L1.23466 6.797L1.23259 6.79778L1.22822 6.79947C1.22521 6.80063 1.22199 6.8019 1.21858 6.80327C1.21176 6.80601 1.20414 6.80916 1.19579 6.81274C1.1791 6.8199 1.15941 6.82883 1.13718 6.83975C1.09278 6.86156 1.03776 6.89151 0.975918 6.93145C0.85222 7.01134 0.699635 7.13223 0.551317 7.30836C0.244298 7.67295 0 8.22131 0 8.99849C0 9.77568 0.244298 10.324 0.551317 10.6886C0.699635 10.8648 0.85222 10.9856 0.975918 11.0655C1.03776 11.1055 1.09278 11.1354 1.13718 11.1572C1.15941 11.1682 1.1791 11.1771 1.19579 11.1842C1.20414 11.1878 1.21176 11.191 1.21858 11.1937C1.22199 11.1951 1.22521 11.1964 1.22822 11.1975L1.23259 11.1992L1.23466 11.2L1.23567 11.2004C1.23617 11.2006 1.23666 11.2007 1.5 10.4985L1.23666 11.2007C1.6245 11.3462 2.05681 11.1497 2.20225 10.7618C2.34357 10.385 2.16204 9.96615 1.79584 9.80929C1.79425 9.80835 1.79219 9.80708 1.78971 9.80548C1.77278 9.79454 1.73786 9.76895 1.69868 9.72242C1.6307 9.6417 1.5 9.44006 1.5 8.99849C1.5 8.55693 1.6307 8.35529 1.69868 8.27456C1.73786 8.22804 1.77278 8.20244 1.78971 8.19151C1.79219 8.18991 1.79425 8.18864 1.79584 8.1877ZM1.76527 9.79697C1.76524 9.79696 1.7653 9.79698 1.76527 9.79697V9.79697Z" fill="#1E293B"/>
<path fill-rule="evenodd" clip-rule="evenodd" d="M18.776 7.77131C18.8843 7.37148 19.2961 7.13507 19.6959 7.24327L19.5 7.96723C19.6959 7.24327 19.6956 7.24317 19.6959 7.24327L19.6974 7.24368L19.699 7.24411L19.7024 7.24504C19.7047 7.2457 19.7073 7.24642 19.71 7.24721C19.7155 7.2488 19.7218 7.25066 19.7288 7.25282C19.7429 7.25714 19.76 7.26267 19.7797 7.26957C19.819 7.28329 19.8695 7.30272 19.9276 7.32915C20.0422 7.38126 20.1956 7.46482 20.3515 7.5931C20.6789 7.86245 21 8.3203 21 8.99848C21 9.67665 20.6789 10.1345 20.3515 10.4039C20.1956 10.5321 20.0422 10.6157 19.9276 10.6678C19.8695 10.6942 19.819 10.7137 19.7797 10.7274C19.76 10.7343 19.7429 10.7398 19.7288 10.7441C19.7218 10.7463 19.7155 10.7482 19.71 10.7497C19.7073 10.7505 19.7047 10.7513 19.7024 10.7519L19.699 10.7529L19.6974 10.7533C19.697 10.7534 19.6959 10.7537 19.5 10.0297L19.6959 10.7537C19.2961 10.8619 18.8843 10.6255 18.776 10.2256C18.6694 9.83166 18.8974 9.42601 19.2867 9.31071C19.29 9.30946 19.2971 9.30672 19.3068 9.30233C19.3328 9.29051 19.3669 9.27155 19.3985 9.24556C19.4461 9.20636 19.5 9.14859 19.5 8.99848C19.5 8.84837 19.4461 8.7906 19.3985 8.7514C19.3669 8.7254 19.3328 8.70645 19.3068 8.69462C19.2971 8.69023 19.29 8.6875 19.2867 8.68625C18.8974 8.57095 18.6694 8.1653 18.776 7.77131Z" fill="#1E293B"/>
<path fill-rule="evenodd" clip-rule="evenodd" d="M10.5 5.24854C10.9142 5.24854 11.25 5.58432 11.25 5.99854V11.9985C11.25 12.4127 10.9142 12.7485 10.5 12.7485C10.0858 12.7485 9.75 12.4127 9.75 11.9985V5.99854C9.75 5.58432 10.0858 5.24854 10.5 5.24854Z" fill="#1E293B"/>
<path fill-rule="evenodd" clip-rule="evenodd" d="M3.75 5.24854C4.16421 5.24854 4.5 5.58432 4.5 5.99854V11.9985C4.5 12.4127 4.16421 12.7485 3.75 12.7485C3.33579 12.7485 3 12.4127 3 11.9985V5.99854C3 5.58432 3.33579 5.24854 3.75 5.24854Z" fill="#1E293B"/>
<path fill-rule="evenodd" clip-rule="evenodd" d="M5.25 11.2485C5.66421 11.2485 6 11.5843 6 11.9985V19.4985H8.10938C8.03051 19.2459 7.91054 18.9544 7.77358 18.6223C7.34411 17.5807 6.75 16.1399 6.75 14.2485C6.75 13.8343 7.08579 13.4985 7.5 13.4985H8.25V12.7485H7.5C7.08579 12.7485 6.75 12.4127 6.75 11.9985C6.75 11.5843 7.08579 11.2485 7.5 11.2485H8.25C8.64782 11.2485 9.02935 11.4066 9.31066 11.6879C9.59196 11.9692 9.75 12.3507 9.75 12.7485V13.4985C9.75 13.8964 9.59196 14.2779 9.31066 14.5592C9.03738 14.8325 8.66952 14.9894 8.28402 14.9981C8.39218 16.1598 8.74112 17.0065 9.08113 17.8316C9.24647 18.2328 9.40971 18.6289 9.5421 19.0536L9.54257 19.0551C9.61204 19.2796 9.62779 19.5172 9.58857 19.7489C9.54935 19.9806 9.45625 20.1998 9.31678 20.3889C9.1773 20.578 8.99535 20.7317 8.78558 20.8376C8.57589 20.9434 8.34427 20.9986 8.10938 20.9985C8.10929 20.9985 8.10946 20.9985 8.10938 20.9985H5.625C5.32663 20.9985 5.04048 20.88 4.8295 20.669C4.61852 20.4581 4.5 20.1719 4.5 19.8735V11.9985C4.5 11.5843 4.83579 11.2485 5.25 11.2485Z" fill="#1E293B"/>
</svg>
