<svg width="50" height="24" viewBox="0 0 50 24" fill="none" xmlns="http://www.w3.org/2000/svg">
<path d="M6.248 16.08C4.97867 16.08 3.87467 15.8507 2.936 15.392C1.99733 14.9227 1.27733 14.2613 0.776 13.408C0.274667 12.5547 0.024 11.5627 0.024 10.432C0.024 8.864 0.317333 7.472 0.904 6.256C1.50133 5.04 2.30667 4.10133 3.32 3.44C4.33333 2.768 5.45867 2.432 6.696 2.432C7.848 2.432 8.72267 2.73067 9.32 3.328C9.91733 3.91467 10.216 4.69333 10.216 5.664C10.216 6.31467 10.0987 6.83733 9.864 7.232C9.64 7.62667 9.31467 7.824 8.888 7.824C8.58933 7.824 8.35467 7.75467 8.184 7.616C8.01333 7.47733 7.928 7.27467 7.928 7.008C7.928 6.912 7.94933 6.736 7.992 6.48C8.056 6.16 8.088 5.904 8.088 5.712C8.088 4.74133 7.57067 4.256 6.536 4.256C5.832 4.256 5.16 4.48533 4.52 4.944C3.88 5.40267 3.36267 6.08 2.968 6.976C2.57333 7.86133 2.376 8.91733 2.376 10.144C2.376 11.424 2.73333 12.416 3.448 13.12C4.16267 13.8133 5.21867 14.16 6.616 14.16C7.30933 14.16 8.008 14.0747 8.712 13.904C9.42667 13.7227 10.216 13.4507 11.08 13.088C11.24 13.024 11.3733 12.992 11.48 12.992C11.6507 12.992 11.7787 13.056 11.864 13.184C11.9493 13.312 11.992 13.4773 11.992 13.68C11.992 14.3307 11.64 14.8107 10.936 15.12C10.1787 15.4507 9.38933 15.696 8.568 15.856C7.75733 16.0053 6.984 16.08 6.248 16.08ZM18.7405 11.088C18.8792 11.088 18.9858 11.1573 19.0605 11.296C19.1352 11.4347 19.1725 11.6107 19.1725 11.824C19.1725 12.336 19.0178 12.64 18.7085 12.736C18.0685 12.96 17.3645 13.088 16.5965 13.12C16.3938 14.016 15.9938 14.736 15.3965 15.28C14.7992 15.8133 14.1218 16.08 13.3645 16.08C12.7245 16.08 12.1752 15.9253 11.7165 15.616C11.2685 15.3067 10.9272 14.896 10.6925 14.384C10.4578 13.872 10.3405 13.3173 10.3405 12.72C10.3405 11.9093 10.4952 11.1893 10.8045 10.56C11.1138 9.92 11.5405 9.424 12.0845 9.072C12.6285 8.70933 13.2312 8.528 13.8925 8.528C14.7032 8.528 15.3538 8.81067 15.8445 9.376C16.3458 9.93067 16.6392 10.6187 16.7245 11.44C17.2258 11.408 17.8232 11.3013 18.5165 11.12C18.6018 11.0987 18.6765 11.088 18.7405 11.088ZM13.4925 14.384C13.8338 14.384 14.1272 14.2453 14.3725 13.968C14.6285 13.6907 14.7992 13.2907 14.8845 12.768C14.5538 12.544 14.2978 12.2507 14.1165 11.888C13.9458 11.5253 13.8605 11.1413 13.8605 10.736C13.8605 10.5653 13.8765 10.3947 13.9085 10.224H13.8285C13.4018 10.224 13.0445 10.432 12.7565 10.848C12.4792 11.2533 12.3405 11.8293 12.3405 12.576C12.3405 13.1627 12.4525 13.6107 12.6765 13.92C12.9112 14.2293 13.1832 14.384 13.4925 14.384ZM25.9593 11.088C26.0979 11.088 26.2046 11.1573 26.2793 11.296C26.3539 11.4347 26.3913 11.6107 26.3913 11.824C26.3913 12.336 26.2366 12.64 25.9273 12.736C25.2873 12.96 24.5833 13.088 23.8153 13.12C23.6126 14.016 23.2126 14.736 22.6153 15.28C22.0179 15.8133 21.3406 16.08 20.5833 16.08C19.9433 16.08 19.3939 15.9253 18.9353 15.616C18.4873 15.3067 18.1459 14.896 17.9113 14.384C17.6766 13.872 17.5592 13.3173 17.5592 12.72C17.5592 11.9093 17.7139 11.1893 18.0233 10.56C18.3326 9.92 18.7593 9.424 19.3033 9.072C19.8473 8.70933 20.4499 8.528 21.1113 8.528C21.9219 8.528 22.5726 8.81067 23.0633 9.376C23.5646 9.93067 23.8579 10.6187 23.9433 11.44C24.4446 11.408 25.0419 11.3013 25.7353 11.12C25.8206 11.0987 25.8953 11.088 25.9593 11.088ZM20.7113 14.384C21.0526 14.384 21.3459 14.2453 21.5913 13.968C21.8473 13.6907 22.0179 13.2907 22.1033 12.768C21.7726 12.544 21.5166 12.2507 21.3353 11.888C21.1646 11.5253 21.0793 11.1413 21.0793 10.736C21.0793 10.5653 21.0953 10.3947 21.1273 10.224H21.0473C20.6206 10.224 20.2633 10.432 19.9753 10.848C19.6979 11.2533 19.5593 11.8293 19.5593 12.576C19.5593 13.1627 19.6713 13.6107 19.8953 13.92C20.1299 14.2293 20.4019 14.384 20.7113 14.384ZM34.266 12.432C34.4047 12.432 34.5113 12.496 34.586 12.624C34.6713 12.752 34.714 12.928 34.714 13.152C34.714 13.5787 34.6127 13.9093 34.41 14.144C33.93 14.7307 33.4447 15.2 32.954 15.552C32.4633 15.904 31.882 16.08 31.21 16.08C30.3887 16.08 29.7273 15.8453 29.226 15.376C28.7247 14.9067 28.474 14.2827 28.474 13.504C28.474 13.088 28.6873 12.7893 29.114 12.608C29.5833 12.4053 29.9193 12.192 30.122 11.968C30.3247 11.7333 30.426 11.4507 30.426 11.12C30.426 10.928 30.3833 10.784 30.298 10.688C30.2233 10.592 30.1273 10.544 30.01 10.544C29.722 10.544 29.402 10.752 29.05 11.168C28.7087 11.584 28.3887 12.1227 28.09 12.784C27.7913 13.4347 27.5567 14.1067 27.386 14.8C27.2687 15.3013 27.13 15.6427 26.97 15.824C26.8207 15.9947 26.5807 16.08 26.25 16.08C25.9193 16.08 25.674 15.9627 25.514 15.728C25.3647 15.4827 25.2633 15.1093 25.21 14.608C25.1567 14.1067 25.13 13.3707 25.13 12.4C25.13 10.7573 25.2953 9.04533 25.626 7.264C25.9673 5.48267 26.4633 3.98933 27.114 2.784C27.7753 1.568 28.5647 0.959999 29.482 0.959999C29.9727 0.959999 30.3673 1.17333 30.666 1.6C30.9753 2.016 31.13 2.56 31.13 3.232C31.13 4.30933 30.8153 5.42933 30.186 6.592C29.5567 7.744 28.5327 9.09333 27.114 10.64C27.082 11.1947 27.066 11.7653 27.066 12.352C27.578 11.0187 28.1647 10.0533 28.826 9.456C29.4873 8.848 30.106 8.544 30.682 8.544C31.2153 8.544 31.642 8.72533 31.962 9.088C32.2927 9.45067 32.458 9.89867 32.458 10.432C32.458 11.0187 32.3087 11.5573 32.01 12.048C31.7113 12.5387 31.1993 12.976 30.474 13.36C30.5167 13.648 30.6447 13.8827 30.858 14.064C31.082 14.2347 31.3487 14.32 31.658 14.32C31.9887 14.32 32.3087 14.192 32.618 13.936C32.9273 13.68 33.3327 13.2533 33.834 12.656C33.962 12.5067 34.106 12.432 34.266 12.432ZM29.146 2.544C28.954 2.544 28.7407 2.82133 28.506 3.376C28.2713 3.92 28.042 4.66133 27.818 5.6C27.6047 6.528 27.4287 7.54133 27.29 8.64C27.9513 7.86133 28.4953 7.01333 28.922 6.096C29.3593 5.17867 29.578 4.34667 29.578 3.6C29.578 3.25867 29.5407 2.99733 29.466 2.816C29.3913 2.63467 29.2847 2.544 29.146 2.544ZM35.5203 7.488C35.0723 7.488 34.7363 7.38667 34.5123 7.184C34.2883 6.97067 34.1763 6.67733 34.1763 6.304C34.1763 5.93067 34.3203 5.62133 34.6083 5.376C34.9069 5.12 35.2749 4.992 35.7123 4.992C36.1069 4.992 36.4269 5.088 36.6723 5.28C36.9176 5.472 37.0403 5.744 37.0403 6.096C37.0403 6.52267 36.9016 6.864 36.6243 7.12C36.3469 7.36533 35.9789 7.488 35.5203 7.488ZM35.3923 16.08C34.6989 16.08 34.1923 15.8347 33.8723 15.344C33.5629 14.8533 33.4083 14.2027 33.4083 13.392C33.4083 12.912 33.4669 12.2987 33.5843 11.552C33.7123 10.7947 33.8723 10.0907 34.0643 9.44C34.1603 9.09867 34.2883 8.864 34.4483 8.736C34.6083 8.608 34.8643 8.544 35.2163 8.544C35.7603 8.544 36.0323 8.72533 36.0323 9.088C36.0323 9.35467 35.9309 9.97333 35.7283 10.944C35.4723 12.1173 35.3443 12.912 35.3443 13.328C35.3443 13.648 35.3869 13.8933 35.4723 14.064C35.5576 14.2347 35.7016 14.32 35.9043 14.32C36.0963 14.32 36.3363 14.1867 36.6243 13.92C36.9123 13.6533 37.2963 13.232 37.7763 12.656C37.9043 12.5067 38.0483 12.432 38.2083 12.432C38.3469 12.432 38.4536 12.496 38.5283 12.624C38.6136 12.752 38.6563 12.928 38.6563 13.152C38.6563 13.5787 38.5549 13.9093 38.3523 14.144C37.2963 15.4347 36.3096 16.08 35.3923 16.08ZM43.5895 11.52C43.8882 11.52 44.0375 11.744 44.0375 12.192C44.0375 13.0347 43.3762 13.456 42.0535 13.456C41.7975 13.456 41.4295 13.408 40.9495 13.312C41.0882 13.9733 41.2002 14.7093 41.2855 15.52C41.3815 16.32 41.4295 16.9813 41.4295 17.504C41.4295 18.656 41.2428 19.536 40.8695 20.144C40.4962 20.752 40.0055 21.056 39.3975 21.056C38.6295 21.056 38.0802 20.512 37.7495 19.424C37.4295 18.336 37.2695 16.6933 37.2695 14.496C37.2695 12.448 37.4882 10.3733 37.9255 8.272C38.3735 6.16 38.9815 4.416 39.7495 3.04C40.5282 1.65333 41.3815 0.959999 42.3095 0.959999C42.8108 0.959999 43.2002 1.184 43.4775 1.632C43.7655 2.08 43.9095 2.68267 43.9095 3.44C43.9095 5.94667 42.4108 8.67733 39.4135 11.632C39.3068 12.6773 39.2535 13.5947 39.2535 14.384C39.2535 15.4827 39.2908 16.608 39.3655 17.76C39.4402 18.9227 39.5628 19.504 39.7335 19.504C40.0535 19.504 40.2135 18.9493 40.2135 17.84C40.2135 17.008 40.1548 16.2027 40.0375 15.424C39.9308 14.6453 39.7815 13.824 39.5895 12.96C39.5788 12.8213 39.6215 12.6453 39.7175 12.432C39.8242 12.2187 39.9522 12.032 40.1015 11.872C40.2508 11.712 40.3842 11.632 40.5015 11.632C40.7148 11.632 40.9708 11.6427 41.2695 11.664C41.3655 11.6747 41.4775 11.68 41.6055 11.68C42.0322 11.68 42.5068 11.6427 43.0295 11.568C43.1148 11.5573 43.2055 11.5467 43.3015 11.536C43.3975 11.5253 43.4935 11.52 43.5895 11.52ZM41.9735 2.544C41.7815 2.544 41.5415 2.86933 41.2535 3.52C40.9762 4.17067 40.6988 5.03467 40.4215 6.112C40.1442 7.17867 39.9042 8.30933 39.7015 9.504C40.5548 8.53333 41.2108 7.52533 41.6695 6.48C42.1282 5.424 42.3628 4.43733 42.3735 3.52C42.3735 2.86933 42.2402 2.544 41.9735 2.544ZM48.4305 8.544C48.6758 8.544 48.8465 8.576 48.9425 8.64C49.0385 8.704 49.0865 8.81067 49.0865 8.96C49.0865 9.216 48.9478 10.128 48.6705 11.696C48.4252 13.2 48.2812 14.0907 48.2385 14.368C47.8438 17.1093 47.2998 19.28 46.6065 20.88C45.9132 22.48 44.9905 23.28 43.8385 23.28C43.2945 23.28 42.8518 23.1093 42.5105 22.768C42.1692 22.4373 41.9985 22 41.9985 21.456C41.9985 20.9547 42.1105 20.4427 42.3345 19.92C42.5692 19.3973 42.9958 18.7947 43.6145 18.112C44.2438 17.44 45.1292 16.6667 46.2705 15.792L46.3185 15.424C46.3932 15.0293 46.4785 14.464 46.5745 13.728C46.3612 14.496 46.0625 15.0827 45.6785 15.488C45.2945 15.8827 44.8892 16.08 44.4625 16.08C43.9825 16.08 43.5878 15.8613 43.2785 15.424C42.9798 14.976 42.8305 14.4213 42.8305 13.76C42.8305 12.96 42.8838 12.2293 42.9905 11.568C43.0972 10.896 43.2732 10.1867 43.5185 9.44C43.6252 9.12 43.7745 8.89067 43.9665 8.752C44.1585 8.61333 44.4625 8.544 44.8785 8.544C45.1132 8.544 45.2732 8.58133 45.3585 8.656C45.4545 8.73067 45.5025 8.84267 45.5025 8.992C45.5025 9.07733 45.4438 9.36533 45.3265 9.856C45.2198 10.2507 45.1345 10.608 45.0705 10.928C44.9852 11.3653 44.9105 11.7867 44.8465 12.192C44.7825 12.5867 44.7505 12.912 44.7505 13.168C44.7505 13.5733 44.8625 13.776 45.0865 13.776C45.2465 13.776 45.4438 13.616 45.6785 13.296C45.9238 12.976 46.1798 12.4907 46.4465 11.84C46.7238 11.1893 46.9905 10.3893 47.2465 9.44C47.3318 9.12 47.4598 8.89067 47.6305 8.752C47.8118 8.61333 48.0785 8.544 48.4305 8.544ZM44.0145 21.728C44.2812 21.728 44.5798 21.4187 44.9105 20.8C45.2412 20.1813 45.5718 19.152 45.9025 17.712C45.0812 18.4053 44.4838 19.0347 44.1105 19.6C43.7478 20.176 43.5665 20.6773 43.5665 21.104C43.5665 21.2853 43.5985 21.4347 43.6625 21.552C43.7372 21.6693 43.8545 21.728 44.0145 21.728Z" fill="black"/>
</svg>
